{"title":"The Fifth Dimension - Up-Up And Away Disc 1 WAV","uid":4751047,"size":548938247,"categoryP":"audio","categoryS":"music","magnet":"?xt=urn:btih:b008827649f820d49570dd69fd3bcd88851a9f8e&amp;dn=The+Fifth+Dimension+-+Up-Up+And+Away+Disc+1+WAV&amp;tr=udp%3A%2F%2Ftracker.openbittorrent.com%3A80&amp;tr=udp%3A%2F%2Fopen.demonii.com%3A1337&amp;tr=udp%3A%2F%2Ftracker.coppersurfer.tk%3A6969&amp;tr=udp%3A%2F%2Fexodus.desync.com%3A6969","seeders":2,"leechers":0,"uploader":null,"files":18,"time":1236187863,"description":"REM GENRE Pop\nREM DATE 1997\nREM DISCID EE0C2711\nREM COMMENT &quot;ExactAudioCopy v0.99pb3&quot;\nPERFORMER &quot;The 5th Dimension&quot;\nTITLE &quot;Up-Up and Away - The Definitive Collection 1&quot;\nFILE &quot;The 5th Dimension - Up-Up and Away - The Definitive Collection 1 - 01. Up-Up And Away.wav&quot; WAVE\n  TRACK 01 AUDIO\n    TITLE &quot;Up-Up And Away&quot;\n    PERFORMER &quot;The 5th Dimension&quot;\n    INDEX 01 00:00:00\n  TRACK 02 AUDIO\n    TITLE &quot;Go Where You Wanna Go&quot;\n    PERFORMER &quot;The 5th Dimension&quot;\n    INDEX 00 02:37:40\nFILE &quot;The 5th Dimension - Up-Up and Away - The Definitive Collection 1 - 02. Go Where You Wanna Go.wav&quot; WAVE\n    INDEX 01 00:00:00\n  TRACK 03 AUDIO\n    TITLE &quot;Learn How To Fly&quot;\n    PERFORMER &quot;The 5th Dimension&quot;\n    INDEX 00 02:22:27\nFILE &quot;The 5th Dimension - Up-Up and Away - The Definitive Collection 1 - 03. Learn How To Fly.wav&quot; WAVE\n    INDEX 01 00:00:00\n  TRACK 04 AUDIO\n    TITLE &quot;Another Day, Another Heartache&quot;\n    PERFORMER &quot;The 5th Dimension&quot;\n    INDEX 00 02:50:30\nFILE &quot;The 5th Dimension - Up-Up and Away - The Definitive Collection 1 - 04. Another Day, Another Heartache.wav&quot; WAVE\n    INDEX 01 00:00:00\n  TRACK 05 AUDIO\n    TITLE &quot;Paper Cup&quot;\n    PERFORMER &quot;The 5th Dimension&quot;\n    INDEX 00 02:31:68\nFILE &quot;The 5th Dimension - Up-Up and Away - The Definitive Collection 1 - 05. Paper Cup.wav&quot; WAVE\n    INDEX 01 00:00:00\n  TRACK 06 AUDIO\n    TITLE &quot;Carpet Man&quot;\n    PERFORMER &quot;The 5th Dimension&quot;\n    INDEX 00 02:41:73\nFILE &quot;The 5th Dimension - Up-Up and Away - The Definitive Collection 1 - 06. Carpet Man.wav&quot; WAVE\n    INDEX 01 00:00:00\n  TRACK 07 AUDIO\n    TITLE &quot;Stoned Soul Picnic&quot;\n    PERFORMER &quot;The 5th Dimension&quot;\n    INDEX 00 03:03:62\nFILE &quot;The 5th Dimension - Up-Up and Away - The Definitive Collection 1 - 07. Stoned Soul Picnic.wav&quot; WAVE\n    INDEX 01 00:00:00\n  TRACK 08 AUDIO\n    TITLE &quot;Sweet Blindness&quot;\n    PERFORMER &quot;The 5th Dimension&quot;\n    INDEX 00 03:26:47\nFILE &quot;The 5th Dimension - Up-Up and Away - The Definitive Collection 1 - 08. Sweet Blindness.wav&quot; WAVE\n    INDEX 01 00:00:00\n  TRACK 09 AUDIO\n    TITLE &quot;California Soul&quot;\n    PERFORMER &quot;The 5th Dimension&quot;\n    INDEX 00 03:22:28\nFILE &quot;The 5th Dimension - Up-Up and Away - The Definitive Collection 1 - 09. California Soul.wav&quot; WAVE\n    INDEX 01 00:00:00\n  TRACK 10 AUDIO\n    TITLE &quot;Wedding Bell Blues&quot;\n    PERFORMER &quot;The 5th Dimension&quot;\n    INDEX 00 03:12:13\nFILE &quot;The 5th Dimension - Up-Up and Away - The Definitive Collection 1 - 10. Wedding Bell Blues.wav&quot; WAVE\n    INDEX 01 00:00:00\n  TRACK 11 AUDIO\n    TITLE &quot;Aquarius - Let The Sunshine In (The Flesh Failures)&quot;\n    PERFORMER &quot;The 5th Dimension&quot;\n    INDEX 00 02:42:15\nFILE &quot;The 5th Dimension - Up-Up and Away - The Definitive Collection 1 - 11. Aquarius - Let The Sunshine In (The Flesh Failures).wav&quot; WAVE\n    INDEX 01 00:00:00\n  TRACK 12 AUDIO\n    TITLE &quot;Workin' On A Groovy Thing&quot;\n    PERFORMER &quot;The 5th Dimension&quot;\n    INDEX 00 04:47:35\nFILE &quot;The 5th Dimension - Up-Up and Away - The Definitive Collection 1 - 12. Workin' On A Groovy Thing.wav&quot; WAVE\n    INDEX 01 00:00:00\n  TRACK 13 AUDIO\n    TITLE &quot;Blowing Away&quot;\n    PERFORMER &quot;The 5th Dimension&quot;\n    INDEX 00 03:08:40\nFILE &quot;The 5th Dimension - Up-Up and Away - The Definitive Collection 1 - 13. Blowing Away.wav&quot; WAVE\n    INDEX 01 00:00:00\n  TRACK 14 AUDIO\n    TITLE &quot;The Girls' Song&quot;\n    PERFORMER &quot;The 5th Dimension&quot;\n    INDEX 00 02:29:43\nFILE &quot;The 5th Dimension - Up-Up and Away - The Definitive Collection 1 - 14. The Girls' Song.wav&quot; WAVE\n    INDEX 01 00:00:00\n  TRACK 15 AUDIO\n    TITLE &quot;Worst That Could Happen&quot;\n    PERFORMER &quot;The 5th Dimension&quot;\n    INDEX 00 03:41:48\nFILE &quot;The 5th Dimension - Up-Up and Away - The Definitive Collection 1 - 15. Worst That Could Happen.wav&quot; WAVE\n    INDEX 01 00:00:00\nFILE &quot;The 5th Dimension - Up-Up and Away - The Definitive Collection 1 - 16. Orange Air.wav&quot; WAVE\n  TRACK 16 AUDIO\n    TITLE &quot;Orange Air&quot;\n    PERFORMER &quot;The 5th Dimension&quot;\n    INDEX 01 00:00:00\n  TRACK 17 AUDIO\n    TITLE &quot;I'll Be Lovin' You Forever&quot;\n    PERFORMER &quot;The 5th Dimension&quot;\n    INDEX 00 02:25:73\nFILE &quot;The 5th Dimension - Up-Up and Away - The Definitive Collection 1 - 17. I'll Be Lovin' You Forever.wav&quot; WAVE\n    INDEX 01 00:00:00\n","torrent":{"xt":"urn:btih:b008827649f820d49570dd69fd3bcd88851a9f8e","amp;dn":"The+Fifth+Dimension+-+Up-Up+And+Away+Disc+1+WAV","amp;tr":["udp%3A%2F%2Ftracker.openbittorrent.com%3A80","udp%3A%2F%2Fopen.demonii.com%3A1337","udp%3A%2F%2Ftracker.coppersurfer.tk%3A6969","udp%3A%2F%2Fexodus.desync.com%3A6969"],"infoHash":"b008827649f820d49570dd69fd3bcd88851a9f8e","infoHashBuffer":{"type":"Buffer","data":[176,8,130,118,73,248,32,212,149,112,221,105,253,59,205,136,133,26,159,142]},"announce":[],"urlList":[]}}